<?xml version="1.0" encoding="iso-8859-1"?>
<!-- Generator: Adobe Illustrator 16.0.0, SVG Export Plug-In . SVG Version: 6.00 Build 0)  -->
<!DOCTYPE svg PUBLIC "-//W3C//DTD SVG 1.1//EN" "http://www.w3.org/Graphics/SVG/1.1/DTD/svg11.dtd">
<svg version="1.1" id="Capa_1" xmlns="http://www.w3.org/2000/svg" xmlns:xlink="http://www.w3.org/1999/xlink" x="0px" y="0px"
	 width="50px" height="60px" viewBox="0 0 444.102 444.102" style="enable-background:new 0 0 444.102 444.102;"
	 xml:space="preserve">
<g>
	<g>
		<path d="M165.917,159.856c6.869,9.884,13.071,14.689,18.962,14.689c2.377,0,8.224-0.879,11.165-9.016
			c2.155-5.956,4.07-12.718,6.098-19.876c4.229-14.927,11.306-39.909,19.572-39.909h0.674c3.349,0,6.75,3.572,10.113,10.617
			c3.846,8.049,6.812,18.925,9.705,29.535c1.936,7.082,3.764,13.772,5.841,19.602c2.891,8.11,8.697,8.988,11.062,8.989
			c5.959,0,11.982-4.736,18.958-14.906c5.336-7.777,10.943-18.313,16.218-30.466c11.824-27.247,18.885-54.945,18.885-74.092
			c0-14.289-5.065-27.83-14.264-38.126C289.176,6.001,275.779,0,261.185,0c-11.512,0-23.456,6.591-32.245,11.439
			c-1.396,0.77-5.32,2.934-6.89,3.591c-1.57-0.66-5.507-2.839-6.919-3.619C206.428,6.596,194.508,0,182.918,0
			c-14.593,0-27.989,6.001-37.72,16.896C136,27.194,130.932,40.735,130.932,55.023c0,19.697,7.024,47.603,18.791,74.647
			C154.971,141.726,160.571,152.164,165.917,159.856z M182.918,13.566c6.188,0,14.445,2.898,22.089,7.754
			c1.082,0.688,2.775,1.991,4.271,3.142c0.654,0.503,1.299,0.997,1.905,1.454c1.979,1.481,4.654,3.42,7.799,5.271
			c1.683,0.993,3.218,1.876,4.975,2.622c6.912,2.935,14.242,4.423,21.787,4.423c7.898,0,30.293-6.249,30.293-7.147
			c0-2.102-28.979-1.968-38.534-4.498c-1.466-0.388-4.535-1.062-4.535-1.604c0-0.393,1.612-1.161,2.604-1.71
			c7.426-4.097,17.596-9.706,25.612-9.706c24.049,0,38.42,21.079,38.42,41.458c0,17.117-6.807,43.438-17.764,68.691
			c-4.868,11.215-10.183,21.227-14.96,28.193c-2.938,4.28-5.081,7.823-6.484,7.807c-2.597-0.03-3.396-11.144-5.138-17.524
			c-3.028-11.086-6.159-22.549-10.517-31.673c-5.891-12.341-13.202-18.34-22.354-18.34h-0.674c-8.863,0-16.027,5.954-21.901,18.2
			c-4.341,9.05-7.592,20.525-10.736,31.623c-1.836,6.481-4.474,17.236-5.423,17.892c-0.853,0.589-3.549-3.397-6.596-7.78
			c-4.78-6.877-10.07-16.77-14.895-27.855c-10.896-25.039-17.665-51.567-17.665-69.233
			C144.497,34.645,158.868,13.566,182.918,13.566z"/>
		<path d="M332.235,181.16H111.866c-8.788,0-15.938,7.15-15.938,15.938v231.064c0,8.789,7.15,15.939,15.938,15.939h63.638
			c8.788,0,15.938-7.15,15.938-15.939c0,0,0-31.387,0-41.848c0-3.834,3.44-3.777,3.44-3.777h53.668c0,0,4.11,0.443,4.11,4.277
			c0,10.336,0,41.348,0,41.348c0,8.789,7.149,15.939,15.938,15.939h63.636c8.788,0,15.938-7.15,15.938-15.939V197.098
			C348.173,188.31,341.023,181.16,332.235,181.16z M326.3,427.854c-11.811,0-43.064,0-53.75,0c-3.667,0-3.644-3.871-3.644-3.871
			v-41.754c0-8.787-7.148-15.938-15.938-15.938h-61.837c-8.788,0-15.938,7.15-15.938,15.938c0,0,0,31.564,0,42.088
			c0,3.332-1.312,3.537-4.312,3.537c-13.625,0-54.5,0-54.5,0s-4.208,0.461-4.208-4.205c0-55.541,0-165.574,0-222.167
			c0-4.167,4.207-4.074,4.207-4.074H326.8c0,0,5.125,0.574,5.125,5.324c0,50.163,0,189.75,0,219.5
			C331.925,425.859,331.55,427.854,326.3,427.854z"/>
		<path d="M138.391,272.545h53.419c7.064,0,12.812-5.748,12.812-12.812V223.9c0-7.064-5.748-12.813-12.812-12.813h-53.419
			c-7.064,0-12.812,5.748-12.812,12.813v35.832C125.579,266.796,131.326,272.545,138.391,272.545z M141.826,230.232
			c0-3,1.224-2.896,3.099-2.896c10.063,0,30.188,0,40.25,0c2,0,3.199,0.021,3.199,3.146c0,6.453,0,16.5,0,22
			c0,2.875-0.7,3.813-3.075,3.813c-10.125,0-30.375,0-40.5,0c-1.833,0-2.974-0.063-2.974-2.438
			C141.826,247.951,141.826,236.748,141.826,230.232z"/>
		<path d="M252.292,272.545h53.419c7.063,0,12.812-5.748,12.812-12.812V223.9c0-7.064-5.747-12.813-12.812-12.813h-53.419
			c-7.063,0-12.813,5.748-12.813,12.813v35.832C239.481,266.796,245.229,272.545,252.292,272.545z M255.729,229.398
			c0-1.834,0.405-2.062,2.654-2.062c9.323,0,35.229,0,42.167,0c1.104,0,1.727,0.479,1.727,1.979c0,6.746,0,19,0,25.334
			c0,1.334-0.561,1.647-1.56,1.647c-6.667,0-32.855,0-42.417,0c-1.875,0-2.571-0.188-2.571-2.563
			C255.729,247.92,255.729,235.852,255.729,229.398z"/>
		<path d="M252.292,351.636h53.419c7.063,0,12.812-5.747,12.812-12.813v-35.834c0-7.063-5.747-12.812-12.812-12.812h-53.419
			c-7.063,0-12.813,5.748-12.813,12.812v35.834C239.481,345.889,245.229,351.636,252.292,351.636z M255.729,308.732
			c0-2.25,0.821-2.308,2.196-2.308c11.088,0,32.531,0,43.375,0c1.062,0,0.977,1.058,0.977,1.058s0,19.75,0,26.332
			c0,1.418-0.652,1.574-1.81,1.574c-7.151,0-33.535,0-43.229,0c-1.438,0-1.512-0.656-1.512-1.656
			C255.729,327.482,255.729,315.396,255.729,308.732z"/>
		<path d="M195.118,290.177h-53.419c-7.064,0-12.812,5.748-12.812,12.813v35.834c0,7.063,5.748,12.812,12.812,12.812h53.419
			c7.064,0,12.812-5.748,12.812-12.812V302.99C207.93,295.925,202.183,290.177,195.118,290.177z M191.683,333.857
			c0,0.938-0.541,1.531-1.508,1.531c-6.546,0-32.616,0-42.708,0c-0.794,0-2.333-0.324-2.333-2.156c0-6.104,0-17.981,0-24.418
			c0-2.166,0.249-2.39,3.083-2.39c10.866,0,31.375,0,41.833,0c1.813,0,1.633,0.992,1.633,1.558
			C191.683,315.482,191.683,327.389,191.683,333.857z"/>
	</g>
</g>
<g>
</g>
<g>
</g>
<g>
</g>
<g>
</g>
<g>
</g>
<g>
</g>
<g>
</g>
<g>
</g>
<g>
</g>
<g>
</g>
<g>
</g>
<g>
</g>
<g>
</g>
<g>
</g>
<g>
</g>
</svg>
